<svg width="14" height="14" viewBox="0 0 14 14" fill="none" xmlns="http://www.w3.org/2000/svg">
<path d="M11.0824 0.367554C11.7421 0.367554 12.3061 0.601756 12.7745 1.07016C13.2429 1.53857 13.4771 2.10259 13.4771 2.76224V10.7445C13.4771 11.4042 13.2429 11.9682 12.7745 12.4366C12.3061 12.905 11.7421 13.1392 11.0824 13.1392H9.51925V8.19186H11.1739L11.4233 6.26281H9.51925V5.0322C9.51925 4.72178 9.58438 4.48896 9.71465 4.33375C9.84491 4.17854 10.0985 4.10094 10.4754 4.10094L11.4899 4.09262V2.37144C11.1406 2.32155 10.6473 2.29661 10.0098 2.29661C9.25595 2.29661 8.65312 2.51834 8.20135 2.9618C7.74958 3.40526 7.5237 4.03165 7.5237 4.84096V6.26281H5.86074V8.19186H7.5237V13.1392H3.10023C2.44059 13.1392 1.87657 12.905 1.40817 12.4366C0.939766 11.9682 0.705566 11.4042 0.705566 10.7445V2.76224C0.705566 2.10259 0.939766 1.53857 1.40817 1.07016C1.87657 0.601756 2.44059 0.367554 3.10023 0.367554H11.0824Z" fill="white"/>
</svg>
