<svg width="14" height="14" viewBox="0 0 14 14" fill="none" xmlns="http://www.w3.org/2000/svg">
<path d="M10.7297 2.57706C10.5782 2.57706 10.43 2.622 10.304 2.7062C10.178 2.7904 10.0798 2.91008 10.0218 3.05011C9.96378 3.19013 9.9486 3.34421 9.97817 3.49285C10.0077 3.6415 10.0807 3.77804 10.1879 3.88521C10.2951 3.99238 10.4316 4.06537 10.5802 4.09493C10.7289 4.1245 10.883 4.10933 11.023 4.05133C11.163 3.99333 11.2827 3.89511 11.3669 3.76909C11.4511 3.64307 11.496 3.49492 11.496 3.34336C11.496 3.14012 11.4153 2.94521 11.2716 2.8015C11.1279 2.65779 10.933 2.57706 10.7297 2.57706ZM13.6672 4.12243C13.6548 3.5926 13.5555 3.06838 13.3735 2.57067C13.2111 2.14482 12.9584 1.75921 12.6327 1.44038C12.3165 1.11305 11.93 0.861931 11.5024 0.706003C11.006 0.518362 10.4812 0.416859 9.95068 0.405869C9.27378 0.367554 9.05667 0.367554 7.31974 0.367554C5.5828 0.367554 5.36569 0.367554 4.6888 0.405869C4.15824 0.416859 3.63345 0.518362 3.13705 0.706003C2.71028 0.863509 2.3241 1.11442 2.00677 1.44038C1.67945 1.75659 1.42833 2.1431 1.27241 2.57067C1.08477 3.06707 0.983265 3.59186 0.972275 4.12243C0.93396 4.79933 0.93396 5.01645 0.93396 6.7534C0.93396 8.49035 0.93396 8.70747 0.972275 9.38437C0.983265 9.91493 1.08477 10.4397 1.27241 10.9361C1.42833 11.3637 1.67945 11.7502 2.00677 12.0664C2.3241 12.3924 2.71028 12.6433 3.13705 12.8008C3.63345 12.9884 4.15824 13.0899 4.6888 13.1009C5.36569 13.1392 5.5828 13.1392 7.31974 13.1392C9.05667 13.1392 9.27378 13.1392 9.95068 13.1009C10.4812 13.0899 11.006 12.9884 11.5024 12.8008C11.93 12.6449 12.3165 12.3937 12.6327 12.0664C12.9598 11.7488 13.2127 11.3628 13.3735 10.9361C13.5555 10.4384 13.6548 9.9142 13.6672 9.38437C13.6672 8.70747 13.7055 8.49035 13.7055 6.7534C13.7055 5.01645 13.7055 4.79933 13.6672 4.12243ZM12.5178 9.30773C12.5131 9.71309 12.4397 10.1147 12.3006 10.4955C12.1987 10.7734 12.0349 11.0245 11.8217 11.2299C11.6146 11.4409 11.364 11.6044 11.0873 11.7088C10.7066 11.8479 10.3049 11.9213 9.89959 11.9259C9.26101 11.9579 9.02474 11.9642 7.34528 11.9642C5.66582 11.9642 5.42955 11.9642 4.79097 11.9259C4.37008 11.9338 3.95098 11.869 3.55213 11.7344C3.28762 11.6246 3.04852 11.4615 2.84969 11.2554C2.63774 11.0503 2.47602 10.799 2.37715 10.521C2.22124 10.1348 2.13477 9.72406 2.12171 9.30773C2.12171 8.66915 2.0834 8.43287 2.0834 6.7534C2.0834 5.07392 2.0834 4.83764 2.12171 4.19906C2.12458 3.78465 2.20023 3.37397 2.34522 2.98575C2.45764 2.71621 2.63019 2.47594 2.84969 2.28331C3.0437 2.06374 3.28347 1.88936 3.55213 1.77244C3.94137 1.63198 4.35163 1.55856 4.76543 1.55532C5.404 1.55532 5.64028 1.51701 7.31974 1.51701C8.99919 1.51701 9.23547 1.51701 9.87405 1.55532C10.2794 1.55997 10.681 1.63339 11.0618 1.77244C11.352 1.88014 11.6124 2.05523 11.8217 2.28331C12.031 2.47947 12.1945 2.71929 12.3006 2.98575C12.4426 3.37461 12.516 3.78512 12.5178 4.19906C12.5497 4.83764 12.5561 5.07392 12.5561 6.7534C12.5561 8.43287 12.5497 8.66915 12.5178 9.30773ZM7.31974 3.47746C6.6721 3.47872 6.03936 3.67193 5.50148 4.03266C4.96361 4.39339 4.54472 4.90546 4.29775 5.50417C4.05079 6.10288 3.98682 6.76136 4.11394 7.39641C4.24107 8.03146 4.55357 8.61457 5.01196 9.07208C5.47036 9.52959 6.05408 9.84096 6.68937 9.96685C7.32466 10.0927 7.983 10.0275 8.58123 9.77935C9.17945 9.53122 9.6907 9.11133 10.0504 8.57275C10.4101 8.03416 10.602 7.40104 10.602 6.7534C10.6029 6.32242 10.5185 5.89553 10.3538 5.49727C10.189 5.09902 9.9472 4.73727 9.64216 4.43281C9.33712 4.12836 8.9749 3.88723 8.57633 3.72327C8.17776 3.55931 7.75071 3.47578 7.31974 3.47746ZM7.31974 8.87988C6.89916 8.87988 6.48803 8.75517 6.13834 8.52151C5.78864 8.28784 5.51609 7.95573 5.35514 7.56717C5.19419 7.1786 5.15208 6.75104 5.23413 6.33854C5.31618 5.92604 5.51871 5.54714 5.8161 5.24974C6.11349 4.95235 6.49239 4.74982 6.90488 4.66777C7.31738 4.58572 7.74494 4.62783 8.1335 4.78878C8.52206 4.94973 8.85417 5.22229 9.08783 5.57199C9.32148 5.92168 9.4462 6.33282 9.4462 6.7534C9.4462 7.03265 9.3912 7.30917 9.28433 7.56717C9.17747 7.82517 9.02083 8.05959 8.82337 8.25705C8.62591 8.45451 8.39149 8.61115 8.1335 8.71801C7.8755 8.82488 7.59899 8.87988 7.31974 8.87988Z" fill="black"/>
</svg>
