<svg width="14" height="14" viewBox="0 0 14 14" fill="none" xmlns="http://www.w3.org/2000/svg">
<path d="M9.76731 0H3.43306C1.5473 0 0 1.53119 0 3.4331V10.0736C0 11.9594 1.53118 13.5068 3.43306 13.5068H9.78343C11.6692 13.5068 13.2165 11.9756 13.2165 10.0736V3.41698C13.2004 1.53119 11.6692 0 9.76731 0ZM10.9117 11.218H8.42954C8.41342 11.218 8.39731 11.218 8.39731 11.2019L6.07636 7.83327H6.06024C5.12542 8.91316 4.20671 9.97694 3.30412 11.0246C3.25577 11.0891 3.1913 11.1374 3.14295 11.1858C3.12683 11.2019 3.11071 11.2019 3.09459 11.2019H2.41765C2.40153 11.2019 2.38542 11.2019 2.40153 11.1858L5.70566 7.34973C5.72177 7.33362 5.72177 7.3175 5.70566 7.30138L2.41765 2.51438V2.49827H4.91589C4.93201 2.49827 4.93201 2.49827 4.94812 2.51438L7.14013 5.6896C7.14013 5.6896 7.14013 5.6896 7.15625 5.6896L9.88013 2.51438C9.89625 2.49827 9.91237 2.49827 9.92849 2.49827H10.6054C10.6377 2.49827 10.6377 2.51438 10.6215 2.5305L7.49472 6.15701C7.4786 6.17313 7.4786 6.18925 7.49472 6.20537L10.9278 11.2019C10.9278 11.2019 10.9278 11.218 10.9117 11.218Z" fill="white"/>
<path d="M4.62566 3.07861H3.54578C3.52966 3.07861 3.52966 3.09473 3.52966 3.11085L8.71955 10.6379C8.71955 10.6379 8.71955 10.6379 8.73567 10.6379H9.79944C9.81555 10.6379 9.81555 10.6218 9.81555 10.6056L4.62566 3.07861Z" fill="white"/>
</svg>
